<?xml version="1.0" encoding="UTF-8" standalone="no"?>
<svg
   xmlns:dc="http://purl.org/dc/elements/1.1/"
   xmlns:cc="http://creativecommons.org/ns#"
   xmlns:rdf="http://www.w3.org/1999/02/22-rdf-syntax-ns#"
   xmlns:svg="http://www.w3.org/2000/svg"
   xmlns="http://www.w3.org/2000/svg"
   xmlns:sodipodi="http://sodipodi.sourceforge.net/DTD/sodipodi-0.dtd"
   xmlns:inkscape="http://www.inkscape.org/namespaces/inkscape"
   enable-background="new 0 0 24 24"
   id="Layer_1"
   version="1.0"
   viewBox="0 0 31.152543 18.084746"
   xml:space="preserve"
   inkscape:version="0.48.5 r10040"
   width="100%"
   height="100%"
   sodipodi:docname="menu1.svg"><metadata
     id="metadata13"><rdf:RDF><cc:Work
         rdf:about=""><dc:format>image/svg+xml</dc:format><dc:type
           rdf:resource="http://purl.org/dc/dcmitype/StillImage" /></cc:Work></rdf:RDF></metadata><defs
     id="defs11" /><sodipodi:namedview
     pagecolor="#ffffff"
     bordercolor="#666666"
     borderopacity="1"
     objecttolerance="10"
     gridtolerance="10"
     guidetolerance="10"
     inkscape:pageopacity="0"
     inkscape:pageshadow="2"
     inkscape:window-width="1600"
     inkscape:window-height="841"
     id="namedview9"
     showgrid="false"
     fit-margin-top="0"
     fit-margin-left="0"
     fit-margin-right="0"
     fit-margin-bottom="0"
     inkscape:zoom="9.8333333"
     inkscape:cx="2"
     inkscape:cy="9"
     inkscape:window-x="-8"
     inkscape:window-y="-8"
     inkscape:window-maximized="1"
     inkscape:current-layer="Layer_1" /><circle
     cx="12"
     cy="12"
     r="2"
     id="circle3"
     sodipodi:cx="12"
     sodipodi:cy="12"
     sodipodi:rx="2"
     sodipodi:ry="2"
     transform="translate(-10,-2.915254)"
     style="fill:#f9f9f9" /><circle
     cx="12"
     cy="5"
     r="2"
     id="circle5"
     sodipodi:cx="12"
     sodipodi:cy="5"
     sodipodi:rx="2"
     sodipodi:ry="2"
     transform="translate(-10,-2.915254)"
     style="fill:#f9f9f9" /><circle
     cx="12"
     cy="19"
     r="2"
     id="circle7"
     sodipodi:cx="12"
     sodipodi:cy="19"
     sodipodi:rx="2"
     sodipodi:ry="2"
     transform="translate(-10,-2.915254)"
     style="fill:#f9f9f9" /><path
     id="path3000"
     d="m 6.946731,3.5932203 h 22.343826 c 1.027816,0 1.861986,-0.8048813 1.861986,-1.7966101 C 31.152543,0.8048814 30.318373,0 29.290557,0 H 6.946731 C 5.918915,0 5.084746,0.8048814 5.084746,1.7966102 c 0,0.9917288 0.834169,1.7966101 1.861985,1.7966101 z M 29.290557,7.186441 H 6.946731 c -1.027816,0 -1.861985,0.804881 -1.861985,1.79661 0,0.991729 0.834169,1.79661 1.861985,1.79661 h 22.343826 c 1.027816,0 1.861986,-0.804881 1.861986,-1.79661 0,-0.991729 -0.83417,-1.79661 -1.861986,-1.79661 z m 0,7.18644 H 6.946731 c -1.027816,0 -1.861985,0.804882 -1.861985,1.796611 0,0.991728 0.834169,1.79661 1.861985,1.79661 h 22.343826 c 1.027816,0 1.861986,-0.804882 1.861986,-1.79661 0,-0.991729 -0.83417,-1.796611 -1.861986,-1.796611 z"
     inkscape:connector-curvature="0"
     style="fill:#f9f9f9" /></svg>